<svg id="Edit_icon" data-name="Edit icon" xmlns="http://www.w3.org/2000/svg" width="14.175" height="14.175" viewBox="0 0 14.175 14.175">
  <path id="Edit_icon-2" data-name="Edit icon" d="M-5.436-13.95l-1.494,1.5h-7.317V-1.953H-3.753V-9.27l1.5-1.494V-1.2a.719.719,0,0,1-.22.526A.719.719,0,0,1-3-.45H-15a.719.719,0,0,1-.526-.221.719.719,0,0,1-.22-.526V-13.2a.719.719,0,0,1,.22-.526A.719.719,0,0,1-15-13.95Zm2.8-.675,1.062,1.062L-8.469-6.669H-9.531V-7.731Z" transform="translate(15.75 14.625)" fill="#fff"/>
</svg>
