<svg xmlns="http://www.w3.org/2000/svg" width="32.76" height="25.935" viewBox="0 0 32.76 25.935">
  <g id="Vector_Smart_Object" data-name="Vector Smart Object" transform="translate(-419 -717.998)">
    <g id="Vector_Smart_Object-2" data-name="Vector Smart Object" transform="translate(419 717.998)">
      <path id="Path_69" data-name="Path 69" d="M744.979,1255.35c-1.693-.97-4.051-.059-5.269,2.032s-.831,4.574.862,5.544,4.05.061,5.268-2.032.831-4.574-.861-5.544" transform="translate(-731.455 -1246.17)" fill="#cb007b"/>
      <path id="Path_70" data-name="Path 70" d="M833.434,1255.35c-1.692.97-2.078,3.452-.861,5.544s3.576,3,5.268,2.032,2.078-3.451.861-5.544-3.576-3-5.269-2.032" transform="translate(-813.754 -1246.17)" fill="#cb007b"/>
      <path id="Path_71" data-name="Path 71" d="M703.236,1190.887l-.022.251c-.253,3.441-2.656,6.622-6.428,8.508l-.029.014a16.369,16.369,0,0,1-7.484,1.787c-.085,0-.119,0-.154.006h-.154c-.026,0-.06,0-.147-.006a16.365,16.365,0,0,1-7.482-1.787l-.029-.014c-3.772-1.886-6.175-5.067-6.428-8.508l-.021-.236c0-.083,0-.235.005-.466a7.18,7.18,0,0,1,.4-2.343l.011-.039c1.54-5.46,6.05-8.229,13.4-8.229h.741c7.354,0,11.864,2.769,13.4,8.229l.012.039a7.24,7.24,0,0,1,.4,2.359c.008.216.009.368.006.435m2.182-.528a9.315,9.315,0,0,0-.491-2.9c-1.267-4.469-4.988-9.787-15.509-9.787h-.741c-10.522,0-14.241,5.318-15.509,9.787a9.356,9.356,0,0,0-.492,2.914c-.008.213-.015.456,0,.673l.012.157s0,.029.011.112c.316,4.189,3.157,8.015,7.6,10.243a18.568,18.568,0,0,0,8.47,2.043l.084,0c.039,0,.063,0,.192,0s.153,0,.192,0l.082,0a18.575,18.575,0,0,0,8.473-2.043c4.446-2.228,7.286-6.054,7.6-10.242.008-.076.011-.1.012-.116l.012-.17c.012-.2.006-.444,0-.67" transform="translate(-672.667 -1177.671)" fill="#cb007b"/>
    </g>
  </g>
</svg>
