<svg id="Capa_1" enable-background="new 0 0 511.996 511.996" height="512" viewBox="0 0 511.996 511.996" width="512" xmlns="http://www.w3.org/2000/svg"><g><path d="m155.475 233.737h-54.071c-4.143 0-7.5 3.358-7.5 7.5v28.967c0 4.142 3.357 7.5 7.5 7.5h54.071c4.143 0 7.5-3.358 7.5-7.5v-28.967c0-4.143-3.358-7.5-7.5-7.5zm-7.5 28.966h-39.071v-13.967h39.071z"/><circle cx="215.205" cy="259.046" r="8.69"/><circle cx="285.28" cy="259.046" r="8.69"/><circle cx="355.354" cy="259.046" r="8.69"/><path d="m155.475 298.159h-54.071c-4.143 0-7.5 3.358-7.5 7.5v28.967c0 4.142 3.357 7.5 7.5 7.5h54.071c4.143 0 7.5-3.358 7.5-7.5v-28.967c0-4.142-3.358-7.5-7.5-7.5zm-7.5 28.967h-39.071v-13.967h39.071z"/><circle cx="215.205" cy="323.468" r="8.69"/><path d="m401.341 417.312c-4.799 0-8.69 3.891-8.69 8.69s3.891 8.69 8.69 8.69 8.69-3.891 8.69-8.69-3.891-8.69-8.69-8.69z"/><path d="m237.085 27.625c-4.799 0-8.69 3.891-8.69 8.69s3.891 8.69 8.69 8.69 8.69-3.891 8.69-8.69-3.891-8.69-8.69-8.69z"/><path d="m470.14 284.832v-161.894c0-20.386-16.594-36.971-36.991-36.971h-75l-101.193-76.821c-11.547-8.766-27.713-8.817-39.314-.125l-101.988 76.401c-.228.171-.441.354-.644.545h-25.443c-4.143 0-7.5 3.358-7.5 7.5s3.357 7.5 7.5 7.5h343.581c12.126 0 21.991 9.856 21.991 21.971v48h-440.139v-48c0-12.115 9.865-21.971 21.992-21.971h17.536c4.143 0 7.5-3.358 7.5-7.5s-3.357-7.5-7.5-7.5h-17.536c-20.397 0-36.992 16.585-36.992 36.971v271.571c0 20.385 16.595 36.97 36.992 36.97h249.86v29.05c0 26.98 21.945 48.931 48.92 48.931h73.394c4.143 0 7.5-3.358 7.5-7.5s-3.357-7.5-7.5-7.5h-73.394c-18.703 0-33.92-15.221-33.92-33.931v-127.293c0-18.704 15.217-33.92 33.92-33.92h127.303c18.704 0 33.921 15.217 33.921 33.92v127.292c0 18.709-15.217 33.931-33.921 33.931h-18.985c-4.143 0-7.5 3.358-7.5 7.5s3.357 7.5 7.5 7.5h18.985c26.975 0 48.921-21.95 48.921-48.931v-127.292c0-24.575-18.218-44.969-41.856-48.404zm-243.504-263.806c6.271-4.698 15.011-4.669 21.25.068l85.454 64.874h-193.394zm228.504 263.29h-35.223v-98.378h35.223zm-168.287 48.92v83.243h-249.861c-12.127 0-21.992-9.856-21.992-21.97v-208.572h35.223v160.741c0 16.805 13.672 30.476 30.477 30.476h178.3c4.143 0 7.5-3.358 7.5-7.5s-3.357-7.5-7.5-7.5h-178.301c-8.534 0-15.477-6.942-15.477-15.476v-160.741h339.694v98.378h-69.145c-26.973.001-48.918 21.946-48.918 48.921z"/><path d="m288.472 203.866h-106.803c-4.143 0-7.5 3.358-7.5 7.5s3.357 7.5 7.5 7.5h106.803c4.143 0 7.5-3.358 7.5-7.5s-3.358-7.5-7.5-7.5z"/><path d="m469.604 451.691c4.756-8.195 4.792-18.391.096-26.61l-48.551-84.951c-9.289-16.253-32.609-16.011-41.62.364l-46.751 84.951c-8.819 16.025 1.675 38.421 20.912 38.421h95.301c8.483 0 16.189-4.551 20.613-12.175zm-123.51-7.454c-1.637-2.769-2.542-7.259-.176-11.559l46.751-84.952c3.482-6.324 11.861-6.444 15.456-.153l48.551 84.951c3.487 6.102.396 16.342-7.686 16.342h-95.301c-4.385 0-6.773-3.237-7.595-4.629z"/><path d="m401.341 409.224c4.143 0 7.5-3.358 7.5-7.5v-30.775c0-4.142-3.357-7.5-7.5-7.5s-7.5 3.358-7.5 7.5v30.775c0 4.142 3.357 7.5 7.5 7.5z"/></g></svg>