<?xml version="1.0" encoding="iso-8859-1"?>
<!-- Generator: Adobe Illustrator 19.0.0, SVG Export Plug-In . SVG Version: 6.00 Build 0)  -->
<svg version="1.1" id="Capa_1" xmlns="http://www.w3.org/2000/svg" xmlns:xlink="http://www.w3.org/1999/xlink" x="0px" y="0px"
	 viewBox="0 0 512 512" style="enable-background:new 0 0 512 512;" xml:space="preserve">
<g>
	<g>
		<path d="M437.02,74.98C388.667,26.629,324.38,0,256,0S123.333,26.629,74.98,74.98C26.629,123.333,0,187.62,0,256
			s26.629,132.667,74.98,181.02C123.333,485.371,187.62,512,256,512s132.667-26.629,181.02-74.98
			C485.371,388.667,512,324.38,512,256S485.371,123.333,437.02,74.98z M426.413,426.413C380.894,471.932,320.374,497,256,497
			s-124.894-25.068-170.413-70.587C40.068,380.894,15,320.374,15,256S40.068,131.106,85.587,85.587
			C131.106,40.068,191.626,15,256,15s124.894,25.068,170.413,70.587C471.932,131.106,497,191.626,497,256
			S471.932,380.894,426.413,426.413z"/>
	</g>
</g>
<g>
	<g>
		<path d="M280.561,186.926c-22.482-10.737-49.43-6.11-67.055,11.516c-17.619,17.618-22.25,44.558-11.526,67.035
			c1.287,2.696,3.974,4.272,6.774,4.272c1.083,0,2.182-0.236,3.225-0.733c3.738-1.784,5.323-6.26,3.539-9.999
			c-7.994-16.753-4.54-36.834,8.594-49.969c13.14-13.14,33.227-16.59,49.984-8.587c3.739,1.786,8.215,0.203,10-3.535
			C285.881,193.188,284.299,188.711,280.561,186.926z"/>
	</g>
</g>
<g>
	<g>
		<path d="M308.328,214.682c-1.787-3.737-6.265-5.319-10.001-3.532c-3.737,1.787-5.318,6.265-3.532,10.001
			c8.014,16.761,4.566,36.854-8.579,50c-13.14,13.139-33.227,16.59-49.984,8.587c-3.737-1.785-8.215-0.202-10,3.535
			c-1.785,3.738-0.203,8.215,3.535,10c8.08,3.859,16.735,5.733,25.328,5.733c15.318,0,30.436-5.958,41.728-17.249
			C314.455,264.125,319.079,237.169,308.328,214.682z"/>
	</g>
</g>
<g>
	<g>
		<path d="M301.77,159.478c-14.192-8.221-30.308-12.567-46.604-12.567c-16.297,0-32.412,4.346-46.604,12.567
			c-3.584,2.076-4.807,6.665-2.73,10.249c1.39,2.401,3.908,3.742,6.496,3.742c1.276,0,2.569-0.326,3.752-1.012
			c11.91-6.899,25.426-10.546,39.085-10.546c13.659,0,27.175,3.647,39.086,10.546c3.584,2.076,8.173,0.854,10.249-2.73
			S305.354,161.554,301.77,159.478z"/>
	</g>
</g>
<g>
	<g>
		<path d="M425.479,312.935c-0.003-25.396-20.666-46.059-46.063-46.059c-2.556,0-5.061,0.219-7.505,0.621
			c1.421-8.991,2.152-18.16,2.152-27.397c0-79.735-53.337-144.604-118.897-144.604c-43.801,0-82.141,28.959-102.769,71.958
			l-10.28-24.514c-1.602-3.82-5.997-5.616-9.817-4.016c-3.82,1.602-5.618,5.997-4.016,9.817l16.183,38.589
			c-4.652,14.387-7.457,29.893-8.066,46.084l-28.226-106.631c-1.061-4.004-5.167-6.389-9.17-5.331
			c-4.004,1.06-6.391,5.166-5.331,9.17l22.043,83.273l-25.363-45.971c-2.001-3.627-6.563-4.945-10.19-2.944
			c-3.627,2.001-4.945,6.563-2.944,10.19l54.297,98.413l39.278,148.383c0.89,3.361,3.925,5.583,7.246,5.583
			c0.635,0,1.281-0.082,1.924-0.251c4.004-1.06,6.391-5.166,5.332-9.17l-23.423-88.486c1.057,1.625,2.141,3.223,3.253,4.791
			c0.088,0.198,0.18,0.394,0.286,0.587l48.911,88.651c1.367,2.478,3.93,3.878,6.574,3.878c1.225,0,2.468-0.301,3.616-0.935
			c3.627-2.001,4.945-6.563,2.944-10.19l-26.177-47.447c7.575,4.704,15.617,8.449,24.017,11.102l14.384,34.299
			c1.205,2.873,3.988,4.602,6.92,4.602c0.966,0,1.95-0.188,2.897-0.585c3.82-1.602,5.618-5.997,4.016-9.817l-10.318-24.605
			c3.938,0.481,7.931,0.73,11.971,0.73c17.827,0,35.351-4.855,51.275-14.097c4.751,15.581,19.257,26.95,36.372,26.95
			c20.964,0,38.02-17.056,38.02-38.02c0-0.192-0.014-0.384-0.017-0.576C405.57,358.216,425.479,337.864,425.479,312.935z
			 M151.27,240.102c0-22.293,4.536-43.289,12.517-61.628c1.169,5.733,3.176,11.638,6.052,17.708
			c5.981,12.627,2.644,21.586-1.22,31.959c-3.148,8.453-6.717,18.033-3.693,28.956c2.392,8.643,7.307,13.559,11.256,17.509
			c2.759,2.76,4.938,4.939,6.081,8.01c1.381,3.71,1.079,7.359,0.73,11.585c-0.493,5.963-1.106,13.384,3.617,21.256
			c5.05,8.417,12.563,10.29,18.6,11.795c6.336,1.58,10.521,2.623,13.716,10.608c4.573,11.431,8.829,21.199,12.027,28.283
			C185.305,352.497,151.27,301.168,151.27,240.102z M261.317,369.467c-2.045,0.151-4.095,0.239-6.149,0.239
			c-2.066-0.002-4.115-0.086-6.149-0.235c-2.509-5.284-9.001-19.268-16.167-37.183c-6.044-15.112-16.431-17.701-24.015-19.591
			c-5.075-1.265-7.593-2.004-9.365-4.958c-2.135-3.558-1.983-6.829-1.53-12.303c0.413-4.993,0.926-11.207-1.62-18.051
			c-2.282-6.134-6.134-9.986-9.531-13.384c-3.392-3.392-6.07-6.072-7.408-10.905c-1.727-6.24,0.489-12.188,3.294-19.718
			c4.193-11.257,9.411-25.267,0.719-43.617c-8.566-18.085-7.763-32.826,2.563-46.233c18.388-20.528,42.648-33.03,69.208-33.03
			c26.561,0,50.821,12.503,69.209,33.031c10.325,13.407,11.128,28.148,2.562,46.233c-8.692,18.35-3.473,32.359,0.72,43.616
			c2.805,7.531,5.021,13.479,3.294,19.719c-1.338,4.833-4.017,7.513-7.408,10.905c-3.397,3.398-7.249,7.25-9.531,13.384
			c-2.546,6.844-2.033,13.058-1.621,18.051c0.453,5.475,0.604,8.745-1.53,12.304c-1.772,2.953-4.29,3.692-9.365,4.957
			c-7.584,1.891-17.97,4.479-24.015,19.591C270.329,350.172,263.83,364.172,261.317,369.467z M305.257,353.614
			c-8.144,5.61-16.851,9.811-25.867,12.507c3.197-7.083,7.45-16.842,12.018-28.263c3.194-7.985,7.38-9.028,13.716-10.608
			c6.037-1.505,13.549-3.377,18.6-11.794c4.723-7.872,4.11-15.293,3.617-21.256c-0.349-4.225-0.651-7.874,0.73-11.585
			c1.142-3.07,3.322-5.25,6.081-8.01c3.949-3.95,8.865-8.866,11.256-17.509c3.023-10.923-0.545-20.503-3.693-28.956
			c-3.864-10.373-7.201-19.332-1.22-31.959c2.879-6.078,4.879-11.989,6.045-17.73c7.986,18.344,12.526,39.348,12.526,61.649
			c-0.003,11.356-1.195,22.592-3.521,33.457c-13.293,8.088-22.189,22.714-22.189,39.379c0,3.271,0.348,6.461,1,9.541
			C319.337,325.903,307.673,338.239,305.257,353.614z M342.812,382.558c-12.693,0-23.02-10.327-23.02-23.02
			c0-11.732,8.823-21.435,20.182-22.839c5.763,9.531,14.881,16.816,25.706,20.205c0.099,0.872,0.153,1.751,0.153,2.633
			C365.832,372.231,355.505,382.558,342.812,382.558z M379.416,343.997c-17.126,0-31.06-13.934-31.06-31.061
			c0-17.126,13.934-31.06,31.06-31.06c17.127,0,31.061,13.934,31.061,31.06C410.476,330.063,396.542,343.997,379.416,343.997z"/>
	</g>
</g>
<g>
</g>
<g>
</g>
<g>
</g>
<g>
</g>
<g>
</g>
<g>
</g>
<g>
</g>
<g>
</g>
<g>
</g>
<g>
</g>
<g>
</g>
<g>
</g>
<g>
</g>
<g>
</g>
<g>
</g>
</svg>
