<svg height="512" viewBox="0 0 46 60" width="512" xmlns="http://www.w3.org/2000/svg"><g id="Page-1" fill="none" fill-rule="evenodd"><g id="023---Bean-Roast" fill="rgb(0,0,0)" fill-rule="nonzero" transform="translate(0 -1)"><path id="Shape" d="m22.761 36.277c-4.528-4.528-11.071-5.377-14.588-1.883-1.45258847 1.4955115-2.23666054 3.5161298-2.173 5.6.12771821 3.4005457 1.5869675 6.6146294 4.063 8.949 2.3578601 2.4689732 5.588065 3.9175406 9 4.036 2.0761043.0577573 4.0890187-.7175208 5.59-2.153 1.4522232-1.4956761 2.2359266-3.5162743 2.172-5.6-.1279805-3.4006907-1.5875985-6.6147953-4.064-8.949zm-11.284 11.252c-2.0884974-1.9697008-3.33438479-4.6707359-3.477-7.538-.00876933-.7867861.12470855-1.5686819.394-2.308.87302369.5172164 1.8518301.8300378 2.863.915 2.2459227.1167648 4.0422962 1.9083939 4.165 4.154.2513943 3.1246298 2.7358197 5.6035446 5.861 5.848.7375145.0489678 1.454087.2658207 2.095.634-.05.055-.087.121-.139.173-2.734 2.718-8.011 1.873-11.762-1.878zm12.952.008c-.8728082-.5175355-1.8517671-.8300638-2.863-.914-2.246674-.1163178-4.0437426-1.9086414-4.166-4.155-.249583-3.1254373-2.734141-5.6057555-5.86-5.85-.7375247-.0496578-1.4540175-.2668287-2.095-.635.05-.055.086-.121.139-.173 1.126325-1.0695858 2.6345992-1.6427084 4.187-1.591 2.880732.1319455 5.5975216 1.3779326 7.577 3.475 2.0872668 1.9694535 3.3320772 4.6697677 3.474 7.536.0090789.7863983-.1240614 1.5679623-.393 2.307z"/><path id="Shape" d="m21.55 33c.2330673.127322.507209.1567037.7619647.0816652.2547557-.0750386.4691989-.2483333.5960353-.4816652 1.6-2.918 4.043-4.6 6.7-4.605.1593333 0 .3213333.007.486.021-.2023659.9480934-.6456152 1.8280484-1.287 2.555-2.3535365 2.7384686-2.3535365 6.7855314 0 9.524.8907601.9737504 1.3786287 2.249357 1.365 3.569.0191335 1.3149989-.4685782 2.5869167-1.362 3.552-1.1123124 1.2681845-1.7394025 2.8894074-1.77 4.576-.0128703.4730659.3076293.8903831.768 1 .5895998.1404207 1.1939199.2095818 1.8.206 5.74-.01 10.4-6.067 10.391-13.5.01-6.587-3.608-12.18-8.6-13.3-.5906762-.1312603-1.1939153-.1976535-1.799-.198-3.359.01-6.518 2.12-8.45 5.643-.1270046.2329726-.1562108.50687-.0811879.7613852.0750229.2545151.2481234.468779.4811879.5956148zm10.489-4.5c3.472 1.455 5.969 5.943 5.961 11 .008 6.332-3.757 11.491-8.393 11.5-.165 0-.325-.006-.482-.018.2010738-.9497375.6444388-1.8313001 1.287-2.559 2.3526874-2.7387833 2.3526874-6.7852167 0-9.524-.8918171-.973169-1.3801587-2.2490775-1.366-3.569-.0191335-1.3149989.4685782-2.5869167 1.362-3.552.8041117-.9424769 1.3642122-2.0681725 1.631-3.278z"/><path id="Shape" d="m.916 31.605c-.42297669 2.3769019-.58493806 4.7929095-.483 7.205.1811918 7.3224913 3.82344401 14.1254185 9.817 18.336 3.7742561 2.519595 8.2120138 3.861016 12.75 3.854 9.5843717-.0392504 18.1535763-5.9802793 21.552-14.942.9466759-2.9311401 1.3823554-6.0032219 1.288-9.082-.1725904-4.3776791-1.2269757-8.6754897-3.1-12.636-2.7174525-5.7064452-6.0948609-11.0744536-10.063-15.994-.591-.76-1.189-1.595-1.8-2.444-1.0558284-1.53856618-2.2011348-3.0137743-3.43-4.418-.3837611-.4187705-.9711452-.58485027-1.5173693-.42902819-.5462241.15582207-.9575758.6068125-1.0626307 1.16502819-.1.521-.2 1.093-.311 1.7-.7 3.9-2.119 12.008-4.5 11.889-1.081-.06-1.437-1.733-1.766-3.778-.1281718-.8088091-.2119639-1.6240292-.251-2.442-.0307892-.67195635-.5065578-1.24060668-1.1625355-1.38949098-.6559777-.14888431-1.3306132.15866399-1.6484645.75149098-1.4427778 2.7814656-2.2476151 5.849481-2.356 8.981-.0651358 1.3943814-.0199953 2.7917298.135 4.179.2411065 1.2140829.0715393 2.4738758-.482 3.581-.1251073.1696995-.3178052.2766322-.528.293-.2221191.0334963-.4477352-.0323237-.617-.18-1.038-.851-1.3-3.87-1.392-4.859-.08832401-1.1036704-.11203114-2.2115616-.071-3.318.02636174-.6641743-.38752715-1.2664905-1.017-1.48-.62105664-.2117996-1.30748324.0094185-1.688.544-3.15067014 4.4342927-5.29526946 9.5029734-6.284 14.852-.005.02-.009.041-.012.061zm6.984-12.373c.01.6586667.04066667 1.2876667.092 1.887.212 2.4.63 5.011 2.116 6.231.5851132.4864865 1.344327.7113584 2.1.622.7379336-.074269 1.4138207-.4457903 1.872-1.029 1.166-1.451 1.025-4.017.911-5.053-.1432137-1.2820394-.1850102-2.5733829-.125-3.862.0883803-2.2046246.5401209-4.3795345 1.337-6.437.033.263.07.525.113.787.338 2.1.848 5.273 3.625 5.427 4.074.217 5.476-7.4 6.58-13.531.0406667-.22933333.081-.45266667.121-.67.887 1.063 1.76 2.279 2.609 3.464.624.87 1.239 1.727 1.845 2.506 3.8716581 4.7986175 7.1677922 10.0343055 9.821 15.6 1.7613228 3.7166754 2.754804 7.7504608 2.921 11.86.0890322 2.8351587-.3076918 5.6646498-1.173 8.366-3.1127646 8.1630609-10.9286467 13.5684002-19.665 13.6-4.1429215.0069288-8.1944382-1.217576-11.64-3.518-5.46432373-3.855503-8.77739034-10.0731607-8.93-16.759-.09560864-2.265138.05662851-4.5339411.454-6.766 0-.017.008-.034.011-.051.82963228-4.5095535 2.52961302-8.8143599 5.005-12.674z"/></g></g></svg>