<?xml version="1.0" encoding="iso-8859-1"?>
<!-- Generator: Adobe Illustrator 19.0.0, SVG Export Plug-In . SVG Version: 6.00 Build 0)  -->
<svg version="1.1" id="Capa_1" xmlns="http://www.w3.org/2000/svg" xmlns:xlink="http://www.w3.org/1999/xlink" x="0px" y="0px"
	 viewBox="0 0 463 463" style="enable-background:new 0 0 463 463;" xml:space="preserve">
<g>
	<path d="M455.5,408H455V151.5c0-4.142-3.357-7.5-7.5-7.5s-7.5,3.358-7.5,7.5v0.5H23v-0.5c0-4.142-3.357-7.5-7.5-7.5
		S8,147.358,8,151.5V408H7.5c-4.143,0-7.5,3.358-7.5,7.5s3.357,7.5,7.5,7.5h16c4.143,0,7.5-3.358,7.5-7.5s-3.357-7.5-7.5-7.5H23V271
		h417v137h-0.5c-4.143,0-7.5,3.358-7.5,7.5s3.357,7.5,7.5,7.5h16c4.143,0,7.5-3.358,7.5-7.5S459.643,408,455.5,408z M440,167v49H23
		v-49H440z M23,256v-25h417v25H23z"/>
	<path d="M47.5,199h56c4.143,0,7.5-3.358,7.5-7.5s-3.357-7.5-7.5-7.5h-56c-4.143,0-7.5,3.358-7.5,7.5S43.357,199,47.5,199z"/>
	<path d="M151.5,199h56c4.143,0,7.5-3.358,7.5-7.5s-3.357-7.5-7.5-7.5h-56c-4.143,0-7.5,3.358-7.5,7.5S147.357,199,151.5,199z"/>
	<path d="M255.5,199h56c4.143,0,7.5-3.358,7.5-7.5s-3.357-7.5-7.5-7.5h-56c-4.143,0-7.5,3.358-7.5,7.5S251.357,199,255.5,199z"/>
	<path d="M359.5,199h56c4.143,0,7.5-3.358,7.5-7.5s-3.357-7.5-7.5-7.5h-56c-4.143,0-7.5,3.358-7.5,7.5S355.357,199,359.5,199z"/>
	<path d="M144,127.5c0,4.142,3.357,7.5,7.5,7.5s7.5-3.358,7.5-7.5c0-7.369,2.666-10.702,6.356-15.315
		C169.653,106.814,175,100.131,175,87.5s-5.347-19.314-9.644-24.685C161.666,58.202,159,54.869,159,47.5c0-4.142-3.357-7.5-7.5-7.5
		s-7.5,3.358-7.5,7.5c0,12.631,5.347,19.314,9.644,24.685C157.334,76.798,160,80.131,160,87.5s-2.666,10.702-6.356,15.315
		C149.347,108.186,144,114.869,144,127.5z"/>
	<path d="M183.5,135c4.143,0,7.5-3.358,7.5-7.5c0-7.369,2.666-10.702,6.356-15.315C201.653,106.814,207,100.131,207,87.5
		c0-10.008-3.37-16.112-6.306-20.313c-2.373-3.395-7.047-4.223-10.444-1.851c-3.395,2.373-4.224,7.049-1.851,10.444
		C190.561,78.873,192,82.049,192,87.5c0,7.369-2.666,10.702-6.356,15.315C181.347,108.186,176,114.869,176,127.5
		C176,131.642,179.357,135,183.5,135z"/>
	<path d="M119.5,135c4.143,0,7.5-3.358,7.5-7.5c0-7.369,2.666-10.702,6.356-15.315C137.653,106.814,143,100.131,143,87.5
		c0-10.008-3.37-16.112-6.306-20.313c-2.373-3.395-7.048-4.223-10.444-1.851c-3.395,2.373-4.224,7.049-1.851,10.444
		C126.561,78.873,128,82.049,128,87.5c0,7.369-2.666,10.702-6.356,15.315C117.347,108.186,112,114.869,112,127.5
		C112,131.642,115.357,135,119.5,135z"/>
	<path d="M288,127.5c0,4.142,3.357,7.5,7.5,7.5s7.5-3.358,7.5-7.5c0-7.369,2.666-10.702,6.356-15.315
		C313.653,106.814,319,100.131,319,87.5s-5.347-19.314-9.644-24.685C305.666,58.202,303,54.869,303,47.5c0-4.142-3.357-7.5-7.5-7.5
		s-7.5,3.358-7.5,7.5c0,12.631,5.347,19.314,9.644,24.685C301.334,76.798,304,80.131,304,87.5s-2.666,10.702-6.356,15.315
		C293.347,108.186,288,114.869,288,127.5z"/>
	<path d="M327.5,135c4.143,0,7.5-3.358,7.5-7.5c0-7.369,2.666-10.702,6.356-15.315C345.653,106.814,351,100.131,351,87.5
		c0-10.008-3.37-16.112-6.306-20.313c-2.374-3.395-7.048-4.223-10.444-1.851c-3.395,2.373-4.224,7.049-1.851,10.444
		C334.561,78.873,336,82.049,336,87.5c0,7.369-2.666,10.702-6.356,15.315C325.347,108.186,320,114.869,320,127.5
		C320,131.642,323.357,135,327.5,135z"/>
	<path d="M263.5,135c4.143,0,7.5-3.358,7.5-7.5c0-7.369,2.666-10.702,6.356-15.315C281.653,106.814,287,100.131,287,87.5
		c0-10.008-3.37-16.112-6.306-20.313c-2.374-3.395-7.048-4.223-10.444-1.851c-3.395,2.373-4.224,7.049-1.851,10.444
		C270.561,78.873,272,82.049,272,87.5c0,7.369-2.666,10.702-6.356,15.315C261.347,108.186,256,114.869,256,127.5
		C256,131.642,259.357,135,263.5,135z"/>
</g>
<g>
</g>
<g>
</g>
<g>
</g>
<g>
</g>
<g>
</g>
<g>
</g>
<g>
</g>
<g>
</g>
<g>
</g>
<g>
</g>
<g>
</g>
<g>
</g>
<g>
</g>
<g>
</g>
<g>
</g>
</svg>
