<svg height="512" viewBox="0 0 64 64" width="512" xmlns="http://www.w3.org/2000/svg"><g id="outline"><path d="m59 50h-1v-1a1 1 0 0 0 -1-1h-4.49a4.227 4.227 0 0 0 .49-2v-10h3a3 3 0 0 0 0-6h-3v-3h3a3 3 0 0 0 0-6h-3v-2a1 1 0 0 0 -1-1h-1v-3a1 1 0 0 0 -1-1h-4a1 1 0 0 0 -1 1v3h-2v-3a1 1 0 0 0 -1-1h-4a1 1 0 0 0 -1 1v3h-2v-3a1 1 0 0 0 -1-1h-4a1 1 0 0 0 -1 1v3h-2v-2a7 7 0 0 0 -14 0v2h-1a1 1 0 0 0 -1 1v2h-3a3 3 0 0 0 0 6h3v3h-3a3 3 0 0 0 0 6h3v10a4.227 4.227 0 0 0 .49 2h-4.49a1 1 0 0 0 -1 1v1h-1a3 3 0 0 0 0 6h1v1a1 1 0 0 0 1 1h1v3a1 1 0 0 0 1 1h4a1 1 0 0 0 1-1v-3h36v3a1 1 0 0 0 1 1h4a1 1 0 0 0 1-1v-3h1a1 1 0 0 0 1-1v-1h1a3 3 0 0 0 0-6zm-6-27h3a1 1 0 0 1 0 2h-3zm0 9h3a1 1 0 0 1 0 2h-3zm-42 2h-3a1 1 0 0 1 0-2h3zm0-9h-3a1 1 0 0 1 0-2h3zm-5 29h-1a1 1 0 0 1 0-2h1zm41-38h2v2h-2zm-8 0h2v2h-2zm-8 0h2v2h-2zm-16 0a5 5 0 0 1 10 0v2h-10zm-2 4h38v7h-38zm0 9h38v7h-38zm0 9h38v8a1.838 1.838 0 0 1 -2 2h-34a1.838 1.838 0 0 1 -2-2zm-1 22h-2v-2h2zm42 0h-2v-2h2zm2-4h-48v-6h48zm3-2h-1v-2h1a1 1 0 0 1 0 2z"/><path d="m19 13h2v2h-2z"/><path d="m39 4a3 3 0 0 1 -3 3 5.006 5.006 0 0 0 -5 5h2a3 3 0 0 1 3-3 5.006 5.006 0 0 0 5-5v-2h-2z"/><path d="m43 12a3 3 0 0 1 3-3 5.006 5.006 0 0 0 5-5v-2h-2v2a3 3 0 0 1 -3 3 5.006 5.006 0 0 0 -5 5z"/><path d="m16 46h3v-2h-2v-2h-2v3a1 1 0 0 0 1 1z"/><path d="m21 44h2v2h-2z"/><path d="m47 40h2v2h-2z"/><path d="m15 31h2v2h-2z"/><path d="m47 31h2v2h-2z"/><path d="m15 22h2v2h-2z"/><path d="m47 22h2v2h-2z"/><path d="m10 52h6v2h-6z"/><path d="m52 52h2v2h-2z"/><path d="m48 52h2v2h-2z"/><path d="m44 52h2v2h-2z"/></g></svg>