<svg xmlns="http://www.w3.org/2000/svg" width="13.53" height="11.25" viewBox="0 0 13.53 11.25">
  <path id="Path_2025" data-name="Path 2025" d="M-7.5-11.625a6.8,6.8,0,0,1,2.392.428,6.746,6.746,0,0,1,2.029,1.181A6.906,6.906,0,0,1-1.567-8.227,6.978,6.978,0,0,1-.735-6a6.749,6.749,0,0,1-.832,2.227A6.906,6.906,0,0,1-3.079-1.984,6.746,6.746,0,0,1-5.108-.8,6.8,6.8,0,0,1-7.5-.375,6.8,6.8,0,0,1-9.892-.8a6.746,6.746,0,0,1-2.029-1.181,6.906,6.906,0,0,1-1.511-1.789A6.978,6.978,0,0,1-14.265-6a6.749,6.749,0,0,1,.833-2.227,6.906,6.906,0,0,1,1.511-1.789A6.746,6.746,0,0,1-9.892-11.2,6.8,6.8,0,0,1-7.5-11.625Zm0,10A5.577,5.577,0,0,0-5.04-2.19,5.649,5.649,0,0,0-3.112-3.727,5.494,5.494,0,0,0-2.017-6,5.554,5.554,0,0,0-3.112-8.273,5.569,5.569,0,0,0-5.04-9.8a5.516,5.516,0,0,0-2.46-.57,5.516,5.516,0,0,0-2.46.57,5.569,5.569,0,0,0-1.928,1.53A5.554,5.554,0,0,0-12.983-6a5.494,5.494,0,0,0,1.1,2.273A5.649,5.649,0,0,0-9.96-2.19,5.577,5.577,0,0,0-7.5-1.628Zm0-1.56A2.754,2.754,0,0,1-8.917-3.57,2.808,2.808,0,0,1-9.93-4.582,2.754,2.754,0,0,1-10.312-6,2.754,2.754,0,0,1-9.93-7.418,2.808,2.808,0,0,1-8.917-8.43,2.754,2.754,0,0,1-7.5-8.813a2.754,2.754,0,0,1,1.418.383A2.808,2.808,0,0,1-5.07-7.418,2.754,2.754,0,0,1-4.687-6,2.754,2.754,0,0,1-5.07-4.582,2.808,2.808,0,0,1-6.082-3.57,2.754,2.754,0,0,1-7.5-3.187Zm0-1.253a1.563,1.563,0,0,0,.784-.206,1.487,1.487,0,0,0,.57-.57A1.563,1.563,0,0,0-5.94-6a1.563,1.563,0,0,0-.206-.784,1.487,1.487,0,0,0-.57-.57A1.57,1.57,0,0,0-7.5-7.56a1.508,1.508,0,0,0-.78.21,1.576,1.576,0,0,0-.566.566A1.515,1.515,0,0,0-9.06-6a1.515,1.515,0,0,0,.21.784,1.576,1.576,0,0,0,.566.566A1.515,1.515,0,0,0-7.5-4.44Z" transform="translate(14.265 11.625)" fill="#232323"/>
</svg>
