<svg xmlns="http://www.w3.org/2000/svg" width="418.999" height="320.003" viewBox="0 0 418.999 320.003">
  <g id="Logo_White" data-name="Logo White" transform="translate(-353 -717.998)">
    <g id="Vector_Smart_Object" data-name="Vector Smart Object">
      <g id="Vector_Smart_Object-2" data-name="Vector Smart Object" transform="translate(-253.667 -459.673)">
        <path id="Path_69" data-name="Path 69" d="M791.56,1258.374c-14.882-8.525-35.616-.521-46.318,17.865s-7.307,40.213,7.575,48.738,35.608.532,46.314-17.865,7.307-40.213-7.571-48.738" fill="#fff"/>
        <path id="Path_70" data-name="Path 70" d="M845.674,1258.374c-14.878,8.525-18.266,30.345-7.567,48.738s31.436,26.39,46.314,17.865,18.27-30.341,7.571-48.738-31.44-26.39-46.318-17.865" fill="#fff"/>
        <path id="Path_71" data-name="Path 71" d="M941.407,1293.855l-.194,2.2c-2.22,30.253-23.345,58.216-56.509,74.8l-.252.126c-18.468,9.922-40.595,15.209-65.795,15.714-.749.019-1.048.038-1.35.054h-.64c-.361,0-.524,0-.718,0-.229-.011-.524-.031-1.292-.05-25.181-.505-47.312-5.792-65.775-15.714l-.252-.126c-33.163-16.579-54.289-44.543-56.509-74.8l-.182-2.071c-.043-.731-.031-2.063.047-4.1.341-9.425,1.207-13.589,3.481-20.6l.1-.345c13.539-48,53.187-72.345,117.845-72.345h6.512c64.654,0,104.3,24.342,117.841,72.345l.1.345c2.27,7.009,3.139,11.174,3.489,20.736.07,1.9.081,3.231.05,3.828m19.178-4.64c-.38-10.431-1.389-16.418-4.319-25.5-11.141-39.291-43.85-86.042-136.343-86.042h-6.512c-92.5,0-125.2,46.751-136.343,86.042-2.926,9.084-3.939,15.071-4.323,25.617-.07,1.868-.128,4.012-.012,5.918l.1,1.382s.019.257.1.984c2.779,36.822,27.75,70.458,66.843,90.042,21.176,11.35,46.233,17.391,74.456,17.965.431.008.605.015.741.023.341.015.551.027,1.688.027s1.343-.011,1.688-.027c.136-.008.307-.015.718-.023,28.247-.574,53.3-6.615,74.483-17.965,39.085-19.584,64.056-53.221,66.839-90.039.074-.666.1-.919.1-1.018l.109-1.5c.1-1.761.05-3.9-.023-5.887" fill="#fff"/>
      </g>
    </g>
    <g id="Vector_Smart_Object-3" data-name="Vector Smart Object" transform="translate(-246.925 -470.275)">
      <path id="Path_78" data-name="Path 78" d="M636.967,1400.622a5.7,5.7,0,0,0,1.977-2.341,2.866,2.866,0,0,0-.4-3.027l-2.964-4.246-7.2,4.855,2.968,4.246a3.083,3.083,0,0,0,2.64,1.523,5.519,5.519,0,0,0,2.987-1.01M635.24,1374a1.431,1.431,0,0,1,.956-.251,1.26,1.26,0,0,1,.89.59l12.207,17.463a11.587,11.587,0,0,1,2.1,5.365,14.207,14.207,0,0,1-.409,5.519,15.6,15.6,0,0,1-2.448,5.025,15.772,15.772,0,0,1-3.978,3.868,16.213,16.213,0,0,1-5.018,2.237,15.665,15.665,0,0,1-5.566.451,14.889,14.889,0,0,1-5.334-1.57,11.719,11.719,0,0,1-4.294-3.779l-4.914-7.031-10.673,7.2a1.238,1.238,0,0,1-1.908-.428l-6.618-9.468a1.138,1.138,0,0,1,.343-1.809Z" fill="#fff"/>
      <path id="Path_79" data-name="Path 79" d="M638.913,1444.352l26.73-31.427a1.294,1.294,0,0,1,.836-.482,1.177,1.177,0,0,1,.987.339l8.707,7.528a1.671,1.671,0,0,1,.5.906,1.087,1.087,0,0,1-.235,1.045l-26.719,31.431c-.563.663-1.218.671-1.958.027l-8.711-7.524a1.164,1.164,0,0,1-.143-1.844" fill="#fff"/>
      <path id="Path_80" data-name="Path 80" d="M719.5,1453.148a2.208,2.208,0,0,1,.143,1.126,1.156,1.156,0,0,1-.782.837l-11.209,2.873c-.486.15-.852-.046-1.1-.586a8.952,8.952,0,0,0-1.418-2.923,8.8,8.8,0,0,0-3.03-2.441,8.556,8.556,0,0,0-3.454-1,9.456,9.456,0,0,0-3.523.39,9.642,9.642,0,0,0-3.126,1.608,8.125,8.125,0,0,0-3.2,5.943,9.986,9.986,0,0,0,.332,3.5,9.489,9.489,0,0,0,1.553,3.17,8.224,8.224,0,0,0,2.764,2.36,9.129,9.129,0,0,0,3.561,1.061,9.681,9.681,0,0,0,3.65-.382.859.859,0,0,1,1.106.59l3.623,11.223a1.174,1.174,0,0,1-.22,1.1,1.618,1.618,0,0,1-.944.44,21.348,21.348,0,0,1-8.861.887,22.189,22.189,0,0,1-7.882-2.46,24.631,24.631,0,0,1-7.154-5.731,23.745,23.745,0,0,1-4.475-7.713,22.856,22.856,0,0,1-1.233-8.859,21.6,21.6,0,0,1,2.609-9.071,21.028,21.028,0,0,1,5.573-6.637,23.745,23.745,0,0,1,7.767-4.107,24.817,24.817,0,0,1,8.9-1.03,21.51,21.51,0,0,1,8.911,2.572,24.74,24.74,0,0,1,4.367,2.908,20.8,20.8,0,0,1,3.03,3.186,20.507,20.507,0,0,1,2.124,3.44q.873,1.788,1.6,3.733" fill="#fff"/>
      <path id="Path_81" data-name="Path 81" d="M756.565,1459.006a3.048,3.048,0,0,1,1.249-.648,2.788,2.788,0,0,1,1.407-.046l13.868,3.532c.389.1.54.324.451.675a1.083,1.083,0,0,1-.486.686l-16.832,16.34,6.845,24.74a3.355,3.355,0,0,1,.058.756c-.1.393-.378.532-.848.409l-13.17-3.355a2.575,2.575,0,0,1-1.183-.7,3.065,3.065,0,0,1-.759-1.165l-5.25-19.279-4.251,16.865q-.324,1.29-1.727.933l-11.243-2.865c-.937-.239-1.291-.787-1.075-1.643l10.322-40.934a1.4,1.4,0,0,1,.547-.821,1.227,1.227,0,0,1,1.06-.139l11.363,2.9a1.593,1.593,0,0,1,.844.586,1.141,1.141,0,0,1,.227,1.057l-3.662,14.524Z" fill="#fff"/>
      <path id="Path_82" data-name="Path 82" d="M802.328,1480.183l7.181-15.245c.289-.424.486-.663.59-.694a4.625,4.625,0,0,1,.567-.162l13.128.4c.316.008.47.154.459.432a1.645,1.645,0,0,1-.436.764L809,1491.263l-.486,15.746c-.019.875-.509,1.3-1.461,1.265l-11.463-.359a1.149,1.149,0,0,1-1.264-1.35l.486-15.862-13.167-26.329a1.478,1.478,0,0,1-.331-.783.364.364,0,0,1,.424-.4l13.132.4c.274.089.463.158.559.2a2.473,2.473,0,0,1,.543.729Z" fill="#fff"/>
      <path id="Path_83" data-name="Path 83" d="M885.155,1467.784a5.676,5.676,0,0,0-1.607-2.619,2.852,2.852,0,0,0-2.987-.586l-4.922,1.458,2.374,8.369,4.934-1.454a3.03,3.03,0,0,0,2.251-2.017,5.593,5.593,0,0,0-.042-3.151m-25.7-6.845a1.423,1.423,0,0,1,.062-.987,1.216,1.216,0,0,1,.821-.652l20.266-6a11.489,11.489,0,0,1,5.728-.281,14.141,14.141,0,0,1,5.088,2.148,15.824,15.824,0,0,1,4,3.918,15.915,15.915,0,0,1,3.006,10.467,15.447,15.447,0,0,1-1.28,5.418,14.746,14.746,0,0,1-3.114,4.551,11.369,11.369,0,0,1-4.9,2.858l-8.156,2.41,3.534,12.41a1.224,1.224,0,0,1-1,1.67l-10.977,3.251a1.145,1.145,0,0,1-1.607-.9Z" fill="#fff"/>
      <path id="Path_84" data-name="Path 84" d="M925.781,1481.876,907.6,1444.722a1.433,1.433,0,0,1-.127-.98,1.218,1.218,0,0,1,.678-.791l10.014-5.26a1.654,1.654,0,0,1,1.01-.131,1.072,1.072,0,0,1,.848.625l18.2,37.158c.382.779.143,1.4-.717,1.844l-10.018,5.268a1.107,1.107,0,0,1-1.7-.579" fill="#fff"/>
      <path id="Path_85" data-name="Path 85" d="M965.2,1410.719a3.7,3.7,0,0,1,.725.143,1.071,1.071,0,0,1,.54.366,1.7,1.7,0,0,1,.3.841l-1.669,11.462a.711.711,0,0,1-.239.652.985.985,0,0,1-.732.139,8.845,8.845,0,0,0-3.245.181,8.757,8.757,0,0,0-3.415,1.863,7.975,7.975,0,0,0-2.185,2.746,8.665,8.665,0,0,0-.84,3.27,9.571,9.571,0,0,0,.443,3.382,9.274,9.274,0,0,0,1.661,3.074,9.562,9.562,0,0,0,2.555,2.19,8.991,8.991,0,0,0,3.191,1.172,8.758,8.758,0,0,0,3.38-.1,7.634,7.634,0,0,0,3.172-1.589,9.97,9.97,0,0,0,2.529-3.143l-3.245-3.98a1.385,1.385,0,0,1-.331-.922,1.225,1.225,0,0,1,.516-.926l7.767-6.348a1.788,1.788,0,0,1,.991-.343,1.125,1.125,0,0,1,1,.417l7.585,9.31a1.38,1.38,0,0,1,.316,1.049l-.035.336a21.508,21.508,0,0,1-2.6,8.523,22.293,22.293,0,0,1-5.315,6.34,23.891,23.891,0,0,1-7.967,4.35,22.33,22.33,0,0,1-17.144-1.381,22.291,22.291,0,0,1-7.289-5.962,22,22,0,0,1-4.039-7.647,23.338,23.338,0,0,1,1.376-17.116,20.793,20.793,0,0,1,5.735-7.188,24.112,24.112,0,0,1,4.367-2.912,20.322,20.322,0,0,1,4.1-1.581,20.89,20.89,0,0,1,3.985-.633q1.989-.116,4.059-.035" fill="#fff"/>
      <path id="Path_86" data-name="Path 86" d="M996.331,1406.688c.9-.366,1.777-.7,2.633-1s1.661-.613,2.413-.933a10.513,10.513,0,0,0,2.043-1.138,5.642,5.642,0,0,0,1.5-1.558q1.578-2.464-.378-3.725a2.552,2.552,0,0,0-1.966-.089,9.588,9.588,0,0,0-3.48,2.268l.065-.1a28.8,28.8,0,0,1-6.1,4.454,15.011,15.011,0,0,1-5.284,1.716,11.255,11.255,0,0,1-4.679-.455,18.348,18.348,0,0,1-4.317-2.071,11.287,11.287,0,0,1-3.739-3.83,11.741,11.741,0,0,1-1.584-5,15.716,15.716,0,0,1,.628-5.777,22.978,22.978,0,0,1,2.868-6.178,28.348,28.348,0,0,1,5.523-6.39,17.366,17.366,0,0,1,7.859-3.61,2,2,0,0,1,1.472.629,4.3,4.3,0,0,1,.833,1.635l2.1,7.328a1.387,1.387,0,0,1-.3,1.581,4.551,4.551,0,0,1-1.592.818,12.549,12.549,0,0,0-3.342,1.547,7.679,7.679,0,0,0-2.293,2.141,5.011,5.011,0,0,0-.771,2.032,1.738,1.738,0,0,0,.948,1.782,1.714,1.714,0,0,0,1.287.258,3.714,3.714,0,0,0,1.345-.552,10.641,10.641,0,0,0,1.353-1.049c.455-.417.9-.814,1.337-1.2q2.6-2.163,4.938-3.818a17.8,17.8,0,0,1,4.718-2.433,10.89,10.89,0,0,1,4.9-.432,14.926,14.926,0,0,1,9.813,6.7,13.719,13.719,0,0,1,1.785,5.731,17.248,17.248,0,0,1-.736,6.39,25.958,25.958,0,0,1-3.087,6.572,18.278,18.278,0,0,1-2.987,3.544,25.566,25.566,0,0,1-3.8,2.923,28.637,28.637,0,0,1-8.4,3.579,3.66,3.66,0,0,1-1.812.116c-.274-.131-.5-.563-.69-1.3l-2.559-8.824a2.474,2.474,0,0,1,.1-1.385,3.943,3.943,0,0,1,1.426-.9" fill="#fff"/>
    </g>
  </g>
</svg>
